<svg height="100" viewBox="0 0 100 100" width="100" xmlns="http://www.w3.org/2000/svg"><g fill="none" stroke-linecap="round" stroke-linejoin="round"><path d="m82.99 15.865h-15.437v-15.323" stroke="#03181c"/><path d="m82.99 81.298v-65.433l-15.464-15.323h-50.516v93.986h44.122" stroke="#03181c"/><path d="m73.263 94.528h9.727v-17.006" stroke="#03181c"/><path d="m55.851 9.865c-2.923-3.204-7.914-3.453-11.147-.556s-3.484 7.842-.561 11.046 7.914 3.453 11.147.556c.384-.344.733-.724 1.041-1.136" stroke="#03181c"/><path d="m47.054 12.17 3.261 2.92 2.025-2.095" stroke="#23a15c"/><g stroke="#03181c"><path d="m25.537 44.523h48.832"/><path d="m25.537 49.529h48.832"/><path d="m25.537 54.516h48.832"/><path d="m25.537 35.524h19.854"/><path d="m25.537 64.559h24.449"/><path d="m25.537 59.557h48.832"/></g><path d="m71.481 80.714c.713-.088 1.361.419 1.449 1.131.015.118.013.237-.005.355-.182 1.192.295 2.39 1.247 3.131.566.441.668 1.258.227 1.824-.073.094-.159.178-.256.249-.97.714-1.479 1.895-1.333 3.09.088.713-.418 1.362-1.13 1.45-.118.015-.238.013-.356-.005-1.19-.181-2.386.294-3.127 1.243-.442.566-1.258.667-1.825.226-.094-.073-.178-.159-.248-.256-.714-.969-1.895-1.479-3.09-1.332-.713.088-1.362-.418-1.45-1.13-.015-.119-.013-.239.005-.357.181-1.19-.294-2.385-1.243-3.126-.566-.442-.667-1.258-.226-1.825.073-.094.159-.178.256-.248.97-.714 1.479-1.895 1.332-3.09-.088-.713.418-1.362 1.13-1.45.119-.015.239-.013.357.005 1.19.181 2.386-.294 3.127-1.243.442-.566 1.259-.666 1.825-.225.094.073.177.159.247.255.714.967 1.894 1.474 3.087 1.328z" stroke="#23a15c"/><circle cx="67.255" cy="86.341" r="3.83" stroke="#23a15c"/><path d="m62.787 91.846-3.398 5.506 4.021 2.106 3.638-5.792" stroke="#23a15c"/><path d="m71.68 91.944 3.315 5.408-4.021 2.106-3.639-5.792" stroke="#23a15c"/></g></svg>