<svg height="100" viewBox="0 0 100 100" width="100" xmlns="http://www.w3.org/2000/svg"><g fill="none" stroke-linecap="round" stroke-linejoin="round"><g stroke="#03181c"><path d="m67.428 21.744h8.128c1.41 0 2.723.735 3.489 1.952l10.2 16.214h-21.817z"/><path d="m88.12 64.008c-.002-.463-.062-3.154-2.29-5.218-2.03-1.881-4.447-1.933-4.952-1.933s-2.92.052-4.949 1.931c-2.23 2.065-2.29 4.757-2.293 5.221h-6.207v-24.098h21.726l7.486 3.633c1.752.85 2.859 2.589 2.86 4.49v13.967c0 1.109-.926 2.008-2.069 2.008h-9.311z"/><path d="m39.321 56.991-.002-.04 28.108.002v7.056h-20.309c-.003-3.899-3.19-7.058-7.118-7.056-.336 0-.347-.009-.68.039z"/><path d="m38.857 71.152c.12-.522.246-1.092.325-1.726.079-.635.118-1.18.13-1.717l.009-10.718c3.924-.56 7.236 2.19 7.799 6.099.555 3.856-2.745 7.496-6.088 8.093-.988.177-1.56.109-2.175-.032z"/><path d="m39.32 56.951c.004-3.996-.002-7.991.002-11.987-1.289-.261-2.622-.523-3.911-.784-1.734-.354-3.61-.782-5.594-1.382-2.027-.613-3.881-1.24-5.553-1.922-1.37-.561-2.983-1.188-4.353-1.749l-3.841 1.544c-.972.408-1.967.766-2.957 1.122v-29.958h54.315v45.118z"/><path d="m21.304 18.371h41.297"/><path d="m43.45 24.343h19.056"/><path d="m72.324 43.935h5.127"/><ellipse cx="80.886" cy="64.062" rx="4.133" ry="4.118"/><path d="m39.331 59.988c.319-.079.348-.066.691-.066 2.265 0 4.102 1.83 4.102 4.087s-1.837 4.087-4.102 4.087c-.354 0-.409.023-.737-.061"/><ellipse cx="80.886" cy="64.062" rx="7.233" ry="7.206"/></g><path d="m10.765 62.871 8.584 7.74 11.849-13.931" stroke="#23a15c"/><path d="m.5 44.964 3.845-.767c3.898-.778 7.716-1.916 11.404-3.398l4.161-1.672 4.161 1.672c3.688 1.482 7.506 2.62 11.404 3.398l3.845.767v22.185c0 8.943-6.47 15.948-19.411 21.016-12.939-5.166-19.409-12.171-19.409-21.016z" stroke="#23a15c"/></g></svg>