<?xml version="1.0" encoding="UTF-8"?><svg id="k" xmlns="http://www.w3.org/2000/svg" width="100" height="100" viewBox="0 0 100 100"><defs><style>.af{stroke:#23a15c;}.af,.ag{stroke-linecap:round;stroke-linejoin:round;}.af,.ag,.ah{fill:none;}.ag,.ah{stroke:#03181c;}.ah{stroke-linecap:square;}</style></defs><g id="l"><path id="m" class="ag" d="M76.33,52.216c1.392,1.501,3.259,2.551,5.269,2.551,2.045,0,3.91-1.192,5.322-2.768"/><path class="ag" d="M64.112,61.867c.951-2.59,3.44-4.438,6.36-4.438h1.935l3.87-.968h0l5.322,3.387,5.322-3.387,3.87,.968h1.935c3.741,0,6.773,3.033,6.773,6.773v4.354"/><path class="ag" d="M89.578,43.922c1.998,.073-1.97,5.927-2.657,8.078-.126,.396,.245,1.043,.367,1.097,2.653,1.186,13.233-23.043-5.689-22.453-18.922,.59-10.76,23.137-5.946,22.407,.188-.028,.94-.434,.624-.947-.481-.78-1.627-2.267-2.292-3.952-1.646-4.169-2.939-9.167,.271-8.142,1.534,.49,4.125,1.268,6.268,.528,2.143-.74,5.085-3.266,6.396-2.846,1.311,.42,.809,6.162,2.657,6.229Z"/><path id="n" class="ah" d="M24.014,51.792v4.517l-5.389,3.429-5.389-3.429v-4.517c1.428,1.674,3.242,2.802,5.389,2.802s3.961-1.128,5.389-2.802Z"/><path id="o" class="ah" d="M18.625,54.594c5.709,0,9.063-7.976,9.063-12.982s-2.594-9.063-9.063-9.063-9.063,4.057-9.063,9.063,3.354,12.982,9.063,12.982Z"/><path class="ag" d="M9.596,42.391c.302-1.119,.889-2.468,1.595-2.738,.537-.205,3.703,2.439,7.435,1.16,1.749-.6,3.976-2.702,5.385-2.702,1.149,0,1.197,2.814,3.505,5.614"/><path class="ag" d="M.5,68.556v-4.409c0-3.788,3.071-6.858,6.858-6.858h1.959l3.919-.98h0l5.389,3.429,5.389-3.429,3.919,.98h1.96c2.926,0,5.507,1.98,6.492,4.56"/><polygon class="af" points="9.318 57.289 13.237 56.309 18.624 59.738 15.685 63.167 9.339 57.323 9.318 57.289"/><polygon class="af" points="24.014 56.309 27.933 57.289 21.565 63.167 18.625 59.738 24.014 56.309"/><path id="p" class="ah" d="M58.343,53.637v6.749l-8.051,5.124-8.051-5.124v-6.589c2.133,2.501,4.843,4.027,8.051,4.027s5.918-1.686,8.051-4.187Z"/><path class="ag" d="M23.21,78.684v-6.587c0-5.659,4.588-10.247,10.247-10.247h2.928l5.855-1.464h0l8.051,5.124,8.051-5.124,5.855,1.464h2.928c5.659,0,10.247,4.588,10.247,10.247v6.587"/><path class="ag" d="M60.836,40.938c3.58,.131,.199,9.761-2.494,12.698v6.749c5.368-7.383,15.84-39.802-8.051-39.056-24.981,.779-15.064,33.251-8.051,39.056v-6.589s-1.799-1.754-3.467-5.979c-2.49-6.307-4.446-13.869,.41-12.317,2.32,.741,6.24,1.918,9.482,.798,3.242-1.12,7.693-4.942,9.677-4.306,1.984,.636-.302,8.844,2.494,8.946Z"/><polygon class="af" points="36.385 61.849 42.24 60.385 50.29 65.509 45.898 70.632 36.417 61.9 36.385 61.849"/><polygon class="af" points="58.343 60.385 64.198 61.849 54.683 70.632 50.291 65.509 58.343 60.385"/><path id="q" class="ah" d="M86.921,52.393v4.067l-5.322,3.387-5.322-3.387v-3.856"/><polygon class="af" points="72.407 57.428 76.277 56.461 81.598 59.847 78.695 63.234 72.428 57.462 72.407 57.428"/><polygon class="af" points="86.921 56.461 90.791 57.428 84.502 63.234 81.599 59.847 86.921 56.461"/></g></svg>