<svg height="100" viewBox="0 0 100 100" width="100" xmlns="http://www.w3.org/2000/svg"><path d="m49.997 8.705-32.864 5.838v45.542c0 3.505 1.872 7.291 5.121 11.256 2.88 3.508 7.072 7.1 12.231 10.678 6.442 4.451 12.376 7.766 15.565 9.276 3.193-1.509 10.479-4.824 16.919-9.276 5.164-3.577 8.677-7.169 11.555-10.678 3.251-3.97 4.343-7.75 4.343-11.256v-45.542zm-10.866 35.945" fill="none" stroke="#04181c" stroke-miterlimit="10" stroke-width="2.5"/><path d="m36.459 49.158 8.561 6.197 17.453-20.74 5.445 4.596-21.67 26.174-14.166-10.142z" fill="#22a15b"/><g fill="#04181c"><path d="m49.971 99.5-1.683-.95 1.245-2.185 1.007.022 1.151 2.234z"/><path d="m45.942 97.202c-.648-.374-1.365-.791-2.132-1.24l1.272-2.17c.762.447 1.474.861 2.118 1.232l-1.257 2.178zm-4.467-2.615-2.114-1.262 1.294-2.156 2.104 1.257-1.284 2.16zm-4.433-2.676c-.705-.432-1.407-.868-2.098-1.3l1.336-2.131c.684.43 1.381.861 2.078 1.29zm-4.392-2.763c-.724-.469-1.419-.928-2.071-1.371l1.414-2.079c.637.433 1.317.883 2.024 1.342l-1.367 2.109zm-4.312-2.942c-.684-.495-1.35-.988-1.996-1.479l1.52-2.001c.631.479 1.28.96 1.949 1.442zm-4.152-3.174c-.663-.538-1.301-1.073-1.915-1.608l1.652-1.895c.592.516 1.208 1.034 1.846 1.552l-1.584 1.952zm-3.953-3.457c-.626-.593-1.22-1.183-1.785-1.77l1.812-1.743c.538.56 1.105 1.123 1.701 1.689zm-3.649-3.831-.336-.403c-.433-.525-.847-1.051-1.24-1.571l2.006-1.515c.373.493.765.989 1.177 1.49l.311.373-1.917 1.625zm-3.176-4.262c-.476-.737-.913-1.478-1.301-2.203l2.217-1.186c.355.665.757 1.347 1.196 2.024l-2.111 1.365zm-2.508-4.768c-.333-.826-.611-1.657-.829-2.47l2.428-.651c.191.716.438 1.45.733 2.183zm-1.365-5.308c-.069-.632-.104-1.275-.104-1.911v-.678h2.514v.678c0 .545.031 1.096.09 1.636l-2.499.275zm2.41-5.289h-2.514v-2.456h2.514zm0-5.157h-2.514v-2.455h2.514zm0-5.156h-2.514v-2.456h2.514zm0-5.157h-2.514v-2.455h2.514zm0-5.156h-2.514v-2.455h2.514zm0-5.157h-2.514v-2.455h2.514zm0-5.156h-2.514v-2.455h2.514zm0-5.157h-2.514v-2.455h2.514zm0-5.156h-2.514v-2.455h2.514z"/><path d="m11.946 9.697h-2.514v-2.312l2.275-.401.437 2.475z"/><path d="m14.89 8.974-.437-2.475 2.497-.441.437 2.475zm70.218-.001-2.497-.441.437-2.475 2.497.441zm-5.243-.926-2.497-.441.437-2.475 2.497.441zm-59.732 0-.437-2.475 2.497-.441.437 2.475zm5.243-.926-.437-2.475 2.497-.441.437 2.475zm49.247 0-2.497-.442.437-2.475 2.497.442zm-5.243-.927-2.497-.441.437-2.475 2.497.441zm-38.761 0-.437-2.475 2.497-.441.437 2.475zm33.517-.926-2.496-.441.437-2.475 2.496.441zm-28.274 0-.437-2.475 2.497-.442.437 2.475zm23.031-.927-2.497-.441.437-2.475 2.497.441zm-17.788 0-.437-2.475 2.497-.441.437 2.475zm12.545-.926-2.497-.441.437-2.475 2.497.441zm-7.303 0-.437-2.475 2.497-.442.437 2.475z"/><path d="m90.568 9.697h-2.514l-.198-.238.437-2.475 2.275.401z"/><path d="m54.11 97.364-1.166-2.227c.66-.346 1.393-.733 2.175-1.149l1.181 2.219c-.787.419-1.525.808-2.19 1.156zm4.59-2.443-1.196-2.212c.705-.381 1.426-.775 2.157-1.178l1.215 2.202c-.738.406-1.467.805-2.176 1.188zm4.558-2.52-1.237-2.187c.716-.405 1.429-.814 2.127-1.22l1.264 2.173c-.708.411-1.429.825-2.154 1.235zm4.51-2.633-1.306-2.148c.725-.441 1.42-.873 2.066-1.29l1.363 2.114c-.665.427-1.377.872-2.122 1.325zm4.418-2.881-1.458-2.048c.662-.471 1.31-.951 1.943-1.439l1.534 1.991c-.658.507-1.331 1.004-2.019 1.495zm4.176-3.232-1.623-1.92c.615-.519 1.22-1.051 1.814-1.593l1.696 1.854c-.619.567-1.248 1.118-1.888 1.66zm3.89-3.576-1.777-1.777c.565-.566 1.122-1.147 1.673-1.743l1.846 1.706c-.573.621-1.153 1.226-1.742 1.814zm3.576-3.884-1.915-1.628c.233-.275.465-.552.697-.834.277-.336.546-.679.805-1.024l2.011 1.51c-.281.374-.574.746-.876 1.115-.242.291-.481.578-.722.861zm3.188-4.321-2.148-1.306c.409-.673.783-1.365 1.115-2.057l2.268 1.085c-.367.767-.783 1.534-1.235 2.278zm2.316-4.924-2.379-.815c.249-.728.46-1.48.626-2.235l2.455.54c-.185.847-.422 1.692-.702 2.51zm1.14-5.345-2.504-.228c.058-.625.086-1.258.086-1.883v-.468h2.514v.468c0 .7-.032 1.41-.096 2.111zm.096-5.292h-2.514v-2.466h2.514zm0-5.18h-2.514v-2.466h2.514zm0-5.179h-2.514v-2.467h2.514zm0-5.18h-2.514v-2.466h2.514zm0-5.179h-2.514v-2.467h2.514zm0-5.18h-2.514v-2.466h2.514zm0-5.18h-2.514v-2.466h2.514zm0-5.179h-2.514v-2.466h2.514zm0-5.18h-2.514v-2.466h2.514z"/></g></svg>