<svg height="100" viewBox="0 0 100 100" width="100" xmlns="http://www.w3.org/2000/svg"><path d="m26.476 3.158c-.132.002-.264-.024-.384-.079-.118-.048-.225-.118-.315-.207-.381-.389-.381-1.011 0-1.399.091-.089.198-.159.315-.207.18-.078.379-.098.572-.059.065.009.129.029.187.059.061.02.117.05.168.089.053.034.103.074.148.118.187.185.293.437.296.7-.003.263-.109.514-.296.7-.043.047-.093.087-.148.118-.05.039-.107.069-.168.089-.059.03-.122.05-.187.059-.062.011-.124.018-.187.02m-2.444 7.341c-.521-.157-.816-.707-.658-1.228.157-.521.707-.816 1.228-.658.516.156.811.698.662 1.217-.128.421-.516.708-.956.709-.093-.004-.185-.017-.276-.039m-2.158 7.371c-.522-.152-.822-.699-.67-1.222.16-.521.707-.819 1.232-.67.518.157.813.702.66 1.222-.118.424-.506.715-.946.709-.093 0-.186-.013-.276-.039m-2.158 7.381c-.522-.153-.822-.7-.669-1.223.153-.521.699-.821 1.22-.669.522.152.822.699.67 1.222-.123.42-.508.709-.946.709-.093 0-.186-.013-.276-.039m-2.158 7.371c-.522-.152-.822-.699-.67-1.222.152-.522.699-.822 1.222-.67.522.152.822.699.67 1.222-.123.42-.508.709-.946.709-.093.001-.187-.012-.276-.039m-2.158 7.381c-.522-.152-.822-.699-.67-1.222.152-.522.699-.822 1.222-.67.522.152.822.699.67 1.222-.123.42-.508.709-.946.709-.093.001-.187-.012-.276-.039m-2.158 7.381c-.522-.152-.822-.699-.67-1.222.152-.522.699-.822 1.222-.67.522.152.822.699.67 1.222-.127.418-.51.705-.946.709-.094.002-.187-.011-.276-.039m-2.158 7.371c-.522-.153-.822-.7-.669-1.223.153-.521.699-.821 1.22-.669.522.152.822.699.67 1.222-.123.42-.508.709-.946.709-.094.002-.187-.011-.276-.039m-2.158 7.381c-.522-.152-.822-.699-.67-1.222.152-.522.699-.822 1.222-.67.522.152.822.699.67 1.222-.127.418-.51.705-.946.709-.094.002-.187-.011-.276-.039m-2.168 7.371c-.533-.112-.873-.635-.761-1.167s.635-.873 1.167-.761c.053.011.105.027.155.046.522.152.822.699.67 1.222-.127.418-.51.705-.946.709-.097-.002-.194-.019-.286-.049m-2.158 7.381c-.522-.152-.822-.699-.67-1.222.152-.522.699-.822 1.222-.67.522.152.822.699.67 1.222-.118.424-.506.715-.946.709-.093 0-.186-.013-.276-.039m-1.973 6.787c-.522-.153-.822-.701-.668-1.223.153-.521.699-.821 1.22-.669.52.148.822.69.673 1.211-.001.004-.002.008-.003.011-.123.42-.508.709-.946.709-.093-.003-.186-.017-.276-.039" fill="#c39052" fill-rule="evenodd"/><path d="m73.191 3.158c-.063-.002-.125-.008-.187-.02-.065-.009-.129-.029-.187-.059-.061-.02-.117-.05-.168-.089-.055-.031-.105-.071-.148-.118-.187-.185-.293-.437-.296-.7.003-.263.109-.514.296-.7.045-.044.095-.084.148-.118.05-.039.107-.069.168-.089.059-.03.122-.05.187-.059.192-.039.392-.019.572.059.118.048.225.118.315.207.381.389.381 1.011 0 1.399-.091.089-.198.159-.315.207-.121.054-.252.081-.384.079m2.444 7.341c-.09.022-.183.035-.276.039-.44-.001-.827-.289-.956-.709-.15-.518.145-1.061.662-1.217.521-.157 1.071.137 1.228.658s-.137 1.071-.658 1.228m2.158 7.371c-.089.027-.182.04-.276.039-.44.005-.828-.286-.946-.709-.153-.52.142-1.065.66-1.222.525-.149 1.072.149 1.232.67.152.522-.148 1.07-.67 1.222m2.158 7.381c-.089.027-.182.04-.276.039-.438 0-.823-.289-.946-.709-.152-.522.148-1.07.67-1.222s1.068.148 1.22.669c.153.522-.146 1.07-.669 1.223m2.158 7.371c-.089.028-.182.041-.276.039-.438 0-.823-.289-.946-.709-.152-.522.148-1.07.67-1.222s1.07.148 1.222.67-.148 1.07-.67 1.222m2.158 7.381c-.089.028-.182.041-.276.039-.438 0-.823-.289-.946-.709-.152-.522.148-1.07.67-1.222s1.07.148 1.222.67-.148 1.07-.67 1.222m2.158 7.381c-.089.028-.182.042-.276.039-.436-.005-.819-.292-.946-.709-.152-.522.148-1.07.67-1.222s1.07.148 1.222.67-.148 1.07-.67 1.222m2.158 7.371c-.089.028-.182.042-.276.039-.438 0-.823-.289-.946-.709-.152-.522.148-1.07.67-1.222.522-.151 1.068.148 1.22.669.153.522-.146 1.07-.669 1.223m2.158 7.381c-.089.028-.182.042-.276.039-.436-.005-.819-.292-.946-.709-.152-.522.148-1.07.67-1.222s1.07.148 1.222.67-.148 1.07-.67 1.222m2.168 7.371c-.092.031-.189.047-.286.049-.436-.005-.819-.292-.946-.709-.152-.522.148-1.07.67-1.222.05-.02.102-.035.155-.046.533-.112 1.055.228 1.167.761s-.228 1.055-.761 1.167m2.158 7.381c-.089.027-.182.04-.276.039-.44.005-.828-.286-.946-.709-.152-.522.148-1.07.67-1.222s1.07.148 1.222.67-.148 1.07-.67 1.222m1.973 6.787c-.09.023-.183.036-.276.039-.438 0-.823-.289-.946-.709-.001-.004-.002-.008-.003-.011-.148-.52.153-1.062.673-1.211.522-.151 1.067.148 1.22.669.153.522-.146 1.07-.668 1.223" fill="#c39052" fill-rule="evenodd"/><g fill="none" stroke="#03181c"><path d="m60.366 85.207c31.95 2.456 38.729 4.812 38.76 6.573.059 3.414-25.739 7.395-49.313 7.408-23.546.012-49.359-3.932-49.313-7.408.023-1.718 6.568-4.052 35.764-6.581" stroke-linecap="round" stroke-linejoin="round"/><path d="m28.894 40.03c-4.032 10.796 1.474 22.808 12.297 26.831 10.824 4.021 22.867-1.47 26.898-12.266 4.032-10.797-1.474-22.809-12.298-26.831-10.823-4.022-22.865 1.47-26.897 12.266z" stroke-linecap="round" stroke-linejoin="round"/><path d="m50.516 45.983c.48 1.285-.175 2.714-1.463 3.192s-2.721-.175-3.2-1.459c-.48-1.285.175-2.714 1.463-3.192 1.288-.479 2.721.175 3.2 1.459z" stroke-linecap="round" stroke-linejoin="round"/><path d="m58.693 36.625-8.627 8.608" stroke-linecap="round" stroke-linejoin="round"/><path d="m46.351 45.168-4.065-4.379" stroke-linecap="round" stroke-linejoin="round"/><path d="m73.675 43.365c.478-.002.957-.005 1.435-.007 1.157 0 2.096.896 2.096 2.001v3.002c0 1.105-.938 2.001-2.096 2.001h-1.301c.12-1.007.198-2.167.176-3.449-.023-1.327-.147-2.52-.31-3.548z" stroke-linecap="round" stroke-linejoin="round"/><path d="m36.264 16.468v8.241c6.255-3.319 13.85-4.052 21.01-1.388 1.074.4 2.106.864 3.092 1.386v-8.239h3.144l4.355 14.259c5.822 6.846 7.864 16.551 4.502 25.568-1.076 2.884-2.616 5.46-4.505 7.675l-4.353 14.251h-3.144v-8.241c-6.256 3.319-13.851 4.052-21.011 1.388-1.074-.4-2.105-.863-3.091-1.385v8.238h-3.144l-4.355-14.259c-5.822-6.846-7.865-16.552-4.502-25.567 1.076-2.884 2.616-5.46 4.504-7.675l4.353-14.252h3.144z" stroke-linecap="round" stroke-linejoin="round"/><path d="m36.264 69.98c.986.528 2.018.998 3.092 1.403 7.16 2.697 14.754 1.955 21.01-1.405v24.233h-24.102z" stroke-linecap="round" stroke-linejoin="round"/><circle cx="48.315" cy="78.861" r=".5" stroke-miterlimit="10"/><circle cx="48.315" cy="86.177" r=".5" stroke-miterlimit="10"/><path d="m60.366 24.735c-.986-.528-2.018-.998-3.092-1.403-7.16-2.697-14.754-1.955-21.01 1.405v-24.233h24.102z" stroke-linecap="round" stroke-linejoin="round"/><circle cx="48.315" cy="15.854" r=".5" stroke-miterlimit="10"/><circle cx="48.315" cy="8.537" r=".5" stroke-miterlimit="10"/></g></svg>