<svg height="100" viewBox="0 0 100 100" width="100" xmlns="http://www.w3.org/2000/svg"><path d="m38.448 22.893 19.401-22.193 25.5 28.778v-7.852h8v16.88l8 9.028h-8v34.877h-18.697" fill="none" stroke="#03181c" stroke-linecap="round" stroke-linejoin="round"/><path d="m42.213 37.02c-1.052-.241-2.118-.413-3.192-.515-6.975-.671-13.903 1.685-19.023 6.47l-5.92-22.094 22.216-5.953z" fill="none" stroke="#03181c" stroke-linecap="round" stroke-linejoin="round"/><path d="m39.191 60.652c.131 1.375-.877 2.595-2.252 2.726-1.374.131-2.595-.877-2.726-2.252s.877-2.595 2.252-2.726h.002c1.374-.13 2.593.878 2.724 2.252z" fill="none" stroke="#03181c" stroke-linecap="round" stroke-linejoin="round"/><path d="m55.052 67.5h-36.693c-3.641-10.131 1.621-21.296 11.752-24.937s21.296 1.621 24.937 11.752c1.531 4.261 1.531 8.923 0 13.184h.004z" fill="none" stroke="#03181c" stroke-linecap="round" stroke-linejoin="round"/><path d="m27.252 25.632c-.533.143-1.082-.174-1.225-.707s.174-1.082.707-1.225 1.082.173 1.225.707c.143.533-.173 1.082-.707 1.225z" fill="#03181c"/><path d="m29.068 32.393c-.533.143-1.082-.173-1.225-.707-.143-.533.173-1.082.707-1.225.533-.143 1.082.173 1.225.707.142.533-.174 1.081-.707 1.224z" fill="#03181c"/><g fill="none" stroke-linecap="round" stroke-linejoin="round"><path d="m46.256 51.122-7.541 8.302z" stroke="#03181c"/><path d="m34.49 59.725-5.681-3.388z" stroke="#03181c"/><path d="m59.218 51.232 1.21-.324c1.067-.286 2.164.347 2.45 1.414l.776 2.9c.286 1.067-.347 2.163-1.414 2.449l-1.21.324c-.275-2.33-.885-4.608-1.812-6.763z" stroke="#03181c"/><path d="m64.322 47.142 3.288-5.442" stroke="#c39052"/><path d="m67.514 51.4 12.057-6.522" stroke="#c39052"/><path d="m68.61 56.668h5.48" stroke="#c39052"/><path d="m13.111 67.5c-1.588-5.699-1.069-11.779 1.462-17.126l.488-14.228 2.9-.776 2.038 7.605c5.12-4.785 12.048-7.141 19.023-6.47 1.074.102 2.14.274 3.192.515l-2.037-7.6 2.9-.776 7.54 12.083c8.535 5.903 12.433 16.538 9.734 26.558l-.7.215z" stroke="#03181c"/><path d="m59.651 67.5 13-4 7 10-7 2.154v19.846l-13 4h-53v-21h46z" stroke="#03181c"/><path d="m59.651 67.5 13-4 7 10-13 4z" stroke="#03181c"/><path d="m6.651 67.5h53l-7 11h-52z" stroke="#03181c"/><path d="m59.651 67.5v32" stroke="#03181c"/><path d="m72.651 63.5h-11.454" stroke="#03181c"/><path d="m6.651 67.5 5.558-2.859" stroke="#03181c"/></g></svg>