<svg height="100" viewBox="0 0 100 100" width="100" xmlns="http://www.w3.org/2000/svg"><g fill="none" stroke-linecap="round" stroke-linejoin="round"><g stroke="#03181c"><path d="m74.529 70.699c.738-.16 9.709-2.198 16.217 4.24 4.186 4.141 4.831 9.269 4.967 10.852v13.709"/><path d="m25.833 70.699c-.738-.16-9.197-2.198-15.705 4.24-4.186 4.141-4.831 9.269-4.967 10.852v13.709"/><path d="m36.304 56.57c3.675 4.091 8.515 6.952 13.897 6.952 5.236 0 10.249-3.247 13.901-7.227"/><path d="m68.405 34.373c6.181.226.344 16.852-4.303 21.922v11.65c9.265-12.744 27.343-68.711-13.9-67.423-43.125 1.344-26.005 57.401-13.898 67.423v-11.375s-3.107-3.028-5.987-10.322c-4.298-10.886-7.675-23.943.709-21.263 4.005 1.279 10.773 3.31 16.371 1.377 5.597-1.935 13.279-8.532 16.706-7.433 3.425 1.097-.522 15.267 4.303 15.443z"/></g><path d="m64.102 67.945 10.427 2.754c-6.432 5.596-12.864 11.191-19.297 16.787-1.694-3.355-3.326-6.711-5.021-10.066 4.753-3.084 9.138-6.392 13.89-9.475z" stroke="#c39052"/><path d="m36.304 67.945-10.471 2.754c6.432 5.596 12.864 11.191 19.297 16.787 1.694-3.355 3.388-6.711 5.082-10.066-4.753-3.084-9.155-6.392-13.908-9.475z" stroke="#c39052"/><path d="m50.212 97.795 5.02-10.309-5.02-10.066-5.083 10.066z" stroke="#c39052"/></g></svg>