<svg height="100" viewBox="0 0 100 100" width="100" xmlns="http://www.w3.org/2000/svg"><g fill="none" stroke-linecap="round" stroke-linejoin="round"><path d="m35.485 11.625h-.2c-1.725-.003-3.359.772-4.446 2.108-1.13-1.281-2.738-2.044-4.447-2.108h-.2c-3.036.111-5.443 2.591-5.456 5.622.022 1.591.676 3.107 1.818 4.217l8.287 8.232 8.285-8.232c1.161-1.055 1.822-2.55 1.819-4.117.102-3.058-2.3-5.619-5.364-5.721-.032-.001-.064-.002-.096-.002z" stroke="#c39052"/><g stroke="#03181c"><path d="m51.407 17.064 1.286-.811c2.98-1.744 6.14-3.162 9.424-4.229 2.732-.939 9.467 2.808 9.467 2.808 5.654-1.808 21.127 3.107 19.506 10.015 0 0 4.995-1.428 7.17 2.332 3.415 5.9-1 8.064-3.909 11.043-1.159 1.19-2.561 2.563-4.06 4.006l.011-.01c-1 2.816-5.863 20.054-6.985 20.68-4.572 2.552-16.334 4.165-21.585 6.178-1.181.453-2.359.914-3.516 1.425-5.259 2.328-8.807 3.1-11.685 6.2l-4.031-6.248c.317 1.953.262 3.947-.16 5.88-.956 4.406-3.739 8.199-7.654 10.435-.602.344-1.225.649-1.866.913-1.831.754-3.789 1.153-5.769 1.176l7.082 2.985-.035.042-6.148 7.417"/><path d="m.5 78.521 6.988-8.619.121-.153 3.948 6.113c-.317-1.953-.263-3.948.16-5.88l-2.587-2.18 2.587 2.171c.957-4.405 3.739-8.196 7.653-10.431.602-.344 1.226-.649 1.867-.913 1.831-.754 3.789-1.153 5.769-1.177l-7.325-3.086.109-.139 16.971-17.538"/><path d="m28.423 73.954c-.432.762-1.401 1.03-2.163.598-.005-.003-.009-.005-.014-.008-.769-.438-1.043-1.413-.614-2.187.432-.763 1.4-1.031 2.163-.599.005.003.009.005.014.008.77.438 1.043 1.414.614 2.188z"/><path d="m16.145 79.382c3.368 5.948 10.919 8.04 16.867 4.672.037-.021.073-.042.11-.063 6.002-3.415 8.137-11.024 4.788-17.063-3.367-5.947-10.918-8.039-16.866-4.672-.037.021-.074.042-.111.064-6.001 3.415-8.137 11.023-4.788 17.062z"/><path d="m13.355 80.979c4.231 7.472 13.718 10.1 21.19 5.869.046-.026.093-.053.139-.079 7.542-4.289 10.225-13.85 6.016-21.437-4.23-7.472-13.716-10.101-21.188-5.871-.047.027-.095.054-.142.081-7.542 4.289-10.225 13.851-6.015 21.437z"/><path d="m21.237 58.629-3.837-3.222 1.241-1.48 8.367 3.525c-1.981.023-3.939.423-5.771 1.177zm-9.52 11.348c-.423 1.932-.477 3.927-.16 5.88l-4.923-7.623 1.242-1.48zm34.462 9.58-3.841-3.223c.422-1.933.477-3.927.16-5.88l4.922 7.623zm-9.522 11.345-1.242 1.48-8.366-3.526c1.98-.023 3.938-.422 5.769-1.176z"/><path d="m21.237 58.629c-.641.264-1.265.569-1.867.913-3.915 2.236-6.697 6.029-7.653 10.435l-7.444-6.247 9.521-11.347zm21.1 17.7 7.444 6.246-9.52 11.352-7.443-6.245c.641-.264 1.264-.569 1.866-.913 3.915-2.236 6.698-6.029 7.654-10.435v-.005z"/><path d="m27.564 64.127-.667 7.433m-1.457 1.807-2.755.538"/><path d="m94.351 38.228c-5.552 5.7-16.649 15.6-17.4 17.169"/><path d="m10.277 18.78c0-10.1 9.208-18.28 20.565-18.28.1 0 .2.011.3.014s.184-.014.278-.014c3.003 0 5.967.672 8.675 1.969 6.703 3.011 11.312 9.177 11.312 16.311-.052 4.923-2.206 9.59-5.919 12.823-.046.047-.086.1-.133.144l1.2 5.655-5.819-2.274c-2.877 1.501-6.075 2.281-9.32 2.274-1.538-.061-3.069-.228-4.584-.5-9.744-2.015-16.555-8.982-16.555-18.122z"/></g></g></svg>