<?xml version="1.0" encoding="UTF-8"?><svg id="y" xmlns="http://www.w3.org/2000/svg" width="100" height="100" viewBox="0 0 100 100"><defs><style>.z,.aa{stroke-linecap:round;stroke-linejoin:round;}.z,.aa,.ab,.ac{fill:none;}.z,.ab,.ac{stroke:#03181c;}.aa{stroke:#c39052;}.ab,.ac{stroke-linecap:square;}.ac{stroke-miterlimit:10;}</style></defs><path class="z" d="M51.5,26.876V5.676c.027-2.734-2.167-4.973-4.902-5-.033,0-.066,0-.098,0H5.5C2.766,.649,.527,2.844,.5,5.578c0,.033,0,.066,0,.098V27.676c-.027,2.734,2.167,4.973,4.902,5,.033,0,.066,0,.098,0h13l16,8.5-4-8.5h15.4"/><circle class="aa" cx="62.8" cy="86.976" r="1.2"/><circle class="aa" cx="62.8" cy="95.176" r="1.2"/><path class="z" d="M51.6,65.076c2.9,3.2,6.6,5.3,10.9,5.3,4.1,0,7.8-2.1,10.7-5.2"/><path class="z" d="M26,86.376c1.615-6.145,7.146-10.447,13.5-10.5h4l8-2c2.4,4.7,6.1,7.1,11,7,4.9-.1,8.6-2.4,11-7l8,2h4c7.757,.035,14.02,6.343,14,14.1h0v9.6"/><path class="ac" d="M73.5,64.676v9.2c-2.4,4.6-6.1,6.9-11,7-4.9,.1-8.6-2.3-11-7v-8.9c2.9,3.4,6.6,5.5,11,5.5s8.1-2.4,11-5.8Z"/><path class="z" d="M99.1,86.376c-1.615-6.145-7.146-10.447-13.5-10.5h-4l-8-2c-2.4,4.7-6.1,7.1-11,7-4.9,0-8.6-2.4-11-7l-8,2h-4c-7.757,.035-14.02,6.343-14,14.1h0v9.6"/><path class="ab" d="M62.4,70.376c11.8,0,18.7-16.6,18.7-27.1s-5.3-18.9-18.7-18.9-18.7,8.5-18.7,18.9,6.9,27.1,18.7,27.1Z"/><path class="z" d="M62.4,41.376c3.6-1.2,8.2-5.6,11.1-5.6,2.4,0,2.4,5.6,7.1,11.3,.314-1.345,.482-2.719,.5-4.1,0-10.3-5.4-18.7-18.7-18.7s-18.7,8.3-18.7,18.6c-.017,.535,.017,1.071,.1,1.6,.6-2.3,1.8-5.1,3.3-5.6,1.1-.3,7.6,5.1,15.3,2.5Z"/><polygon class="aa" points="25.5 5.676 29 12.776 36.9 13.876 31.2 19.376 32.5 27.176 25.5 23.576 18.5 27.176 19.9 19.376 14.2 13.876 22 12.776 25.5 5.676"/></svg>