<?xml version="1.0" encoding="utf-8"?>
<!-- Generator: Adobe Illustrator 26.5.0, SVG Export Plug-In . SVG Version: 6.00 Build 0)  -->
<svg version="1.1" id="Ebene_1" xmlns="http://www.w3.org/2000/svg" xmlns:xlink="http://www.w3.org/1999/xlink" x="0px" y="0px"
	 width="315px" height="417px" viewBox="0 0 315 417" style="enable-background:new 0 0 315 417;" xml:space="preserve">
<style type="text/css">
	.st0{fill:none;stroke:#23A15C;stroke-linecap:round;stroke-linejoin:round;}
</style>
<path class="st0" d="M176.2,3.2C251,3.2,311.8,64,311.8,138.8c0,74.8-60.8,135.6-135.6,135.6c-74.8,0-135.6-60.8-135.6-135.6
	C40.7,64,101.5,3.2,176.2,3.2z M74.2,228.1l21.5,21.5l-21.5,21.5l-28.5-28.5l21.5-20.9L74.2,228.1z M38.1,235.8l43.7,43.1l-135,135
	l-43.7-43.7L38.1,235.8z M15.9,257.9l43.7,43.7L-52.5,413.8l-43.7-43.7L15.9,257.9z M-74,347.9l43.7,43.7l-22.8,22.2l-43.7-43.7
	L-74,347.9z"/>
<path class="st0" d="M176.2,253.5c-63.3,0-114.7-51.4-114.7-114.7c0-63.4,51.3-114.7,114.7-114.7s114.7,51.4,114.7,114.7
	C290.9,202.1,239.6,253.5,176.2,253.5z"/>
</svg>
