<svg height="100" viewBox="0 0 100 100" width="100" xmlns="http://www.w3.org/2000/svg"><g fill="none" stroke-linecap="square" stroke-linejoin="round"><g stroke="#03181c"><path d="m50.488 9.492h45.877v80.04h-45.877z"/><path d="m27.55 9.492-16.106 6.833v66.374l15.032 6.833h-22.841v-80.04z"/><path d="m43.655 2.659-32.211 13.666v66.374l32.211 14.642z"/><path d="m7.54 31.942h3.904v6.833h-3.904z"/><path d="m7.54 65.618h3.904v6.833h-3.904z"/><path d="m74.891 95.389h15.617v-5.857h-15.617z"/><path d="m9.492 95.389h15.617v-5.857h-15.617z"/><path d="m50.488 16.325h39.044v66.374h-39.044z"/></g><path d="m50.488 44.437h34.163v28.077h-34.163z" stroke="#23a15c"/><path d="m50.488 44.437h29.283l-1.952-10.649-27.331 4.841z" stroke="#23a15c"/><path d="m80.747 64.769c-2.156 0-3.904 1.734-3.904 3.873h-26.355v-20.331h26.355c0 2.139 1.748 3.873 3.904 3.873v12.586z" stroke="#23a15c"/><ellipse cx="58.297" cy="58.476" rx="5.369" ry="5.325" stroke="#23a15c"/><path d="m43.655 2.659 6.833 2.929v88.824l-6.833 2.929z" stroke="#03181c"/><path d="m32.918 29.014h4.88v1.952h-3.416v40.996h3.416v1.952h-4.88c-1.078 0-1.952-.874-1.952-1.952v-40.996c0-1.078.874-1.952 1.952-1.952z" stroke="#03181c"/></g></svg>