<svg height="100" viewBox="0 0 100 100" width="100" xmlns="http://www.w3.org/2000/svg"><g fill="none" stroke-linecap="round" stroke-linejoin="round"><path d="m85.614 63.275 2.962-2.953c1.102-1.101 3.461-.548 4.843.831 1.382 1.378 1.936 3.733.833 4.837l-2.961 2.944-5.677-5.658z" stroke="#23a15c"/><path d="m91.267 68.949-18.432 18.39-7.751 2.085 2.089-7.734 18.432-18.391 3.511 3.505z" stroke="#23a15c"/><path d="m72.835 87.339-7.751 2.085 2.089-7.734z" stroke="#23a15c"/><path d="m36.03 89.359c4.053-2.185 4.767-4.101 7.849-7.267-.881 1.641-1.495 3.412-1.818 5.247 1.305-.365 2.556-.902 3.72-1.597-.45 1.286-.743 2.621-.873 3.978 1.328-.342 2.602-.868 3.785-1.563.052.422.024.85-.081 1.262 1.596-.783 3.143-1.661 4.634-2.629-.085.61-.324 1.189-.693 1.682.678-.442 1.38-.845 2.103-1.209" stroke="#23a15c"/><path d="m57.325 88.823c1.326-1.117 2.569-2.329 3.72-3.626l-.617 1.44.776-.197c-.005 1.079.294 2.138.863 3.055l.614-.841" stroke="#23a15c"/><path d="m78.718 16.642h-16.232v-16.112" stroke="#03181c"/><path d="m78.718 70.171v-53.529l-16.26-16.112h-53.114v98.819h8.518 12.726 48.13v-17.879" stroke="#03181c"/><path d="m50.182 10.333c-3.073-3.368-8.321-3.63-11.72-.584s-3.663 8.245-.59 11.613 8.321 3.63 11.72.584c.404-.362.77-.762 1.095-1.195" stroke="#03181c"/><path d="m40.933 12.757 3.429 3.071 2.129-2.203" stroke="#23a15c"/><g stroke="#03181c"><path d="m18.31 46.774h51.343"/><path d="m18.31 52.037h51.343"/><path d="m18.31 57.28h51.343"/><path d="m18.31 37.312h20.875"/><path d="m18.31 67.839h25.706"/><path d="m18.31 62.581h51.343"/></g></g></svg>