<svg height="100" viewBox="0 0 100 100" width="100" xmlns="http://www.w3.org/2000/svg"><g fill="none"><g stroke="#23a15c" stroke-linecap="round" stroke-linejoin="round"><path d="m62.23 60.496-2.435 5.565"/><path d="m52.52 65.618c-.126-.589-.193-1.201-.193-1.828 0-4.797 3.889-8.687 8.685-8.687s8.685 3.889 8.685 8.687c0 2.763-1.29 5.225-3.301 6.816"/><circle cx="68.767" cy="13.976" r="8.18"/><path d="m72.212 12.024-7.151 3.832"/></g><path d="m66.47 72.179c6.418-3.423 19.071-10.495 25.489-13.918 2.175-1.165 4.886-.615 6.418 1.284 1.37 1.698 1.489 4.096.343 5.933-.208.334-.514.596-.844.809-13.096 8.45-26.193 16.9-39.289 25.351-1.866 1.094-5.016 2.563-8.985 2.567-2.846.003-4.98-.749-6.418-1.284-6.829-2.54-13.796-6.075-17.907-8.263-.009-.005-.018-.009-.027-.014-1.297-.682-2.836-.715-4.24-.298-2.346.696-6.951 2.051-7.876 2.239-.876.178-1.498.111-2.048-.057-1.515-.461-2.697-1.658-3.285-3.129l-6.974-17.436c-.773-2.504-.284-3.813 2.63-5.399 2.394-1.599 8.073-5.401 15.34-6.154 3.124-.324 6.418 0 6.418 0 2.877.283 4.99.876 6.418 1.284 3.204.916 4.983 1.812 6.512 3.111 1.622 1.379 1.542 1.637 3.756 3.307 1.916 1.445 3.733 2.085 5.134 2.567 2.112.726 3.598.904 6.418 1.284 1.921.259 4.756.651 8.318 1.184.571.085 1.135.256 1.642.532.963.524 2.355 1.572 2.875 3.419.509 1.808.015 3.785-1.252 5.261-.642.748-1.578 1.182-2.562 1.242-3.442.207-7.335.234-11.589-.084-5.94-.443-11.128-1.45-15.403-2.567" stroke="#03181c" stroke-miterlimit="10"/><circle cx="45.914" cy="41.771" r="8.18" stroke="#23a15c" stroke-linecap="round" stroke-linejoin="round"/><path d="m47.069 37.983-2.547 7.704" stroke="#23a15c" stroke-linecap="round" stroke-linejoin="round"/><circle cx="76.378" cy="40.2" r="8.18" stroke="#23a15c" stroke-linecap="round" stroke-linejoin="round"/><path d="m80.165 41.355-7.702-2.547" stroke="#23a15c" stroke-linecap="round" stroke-linejoin="round"/></g></svg>