<?xml version="1.0" encoding="utf-8"?>
<!-- Generator: Adobe Illustrator 26.5.0, SVG Export Plug-In . SVG Version: 6.00 Build 0)  -->
<svg version="1.1" id="Ebene_1" xmlns="http://www.w3.org/2000/svg" xmlns:xlink="http://www.w3.org/1999/xlink" x="0px" y="0px"
	 width="252px" height="254px" viewBox="0 0 252 254" style="enable-background:new 0 0 252 254;" xml:space="preserve">
<style type="text/css">
	.st0{fill-rule:evenodd;clip-rule:evenodd;fill:#23A15C;}
</style>
<path class="st0" d="M55.3,0.4L55,0l-0.4,0.3L0.4,39.6L0,39.9l0.3,0.4l62.8,86.4L0.3,213.2L0,213.6l0.4,0.3l54.2,39.4l0.4,0.3
	l0.3-0.4l91.4-125.8l0.3-0.4l-0.2-0.2l0.2-0.2l-0.3-0.4L55.3,0.4z M54.8,1.4l90.8,125l-0.4,0.3l0.4,0.3l-90.8,125L1.4,213.4
	l62.7-86.3l0.2-0.3l-0.2-0.3L1.4,40.2L54.8,1.4z M159.7,0.4L159.4,0L159,0.3l-54.2,39.4l-0.4,0.3l0.3,0.4l62.8,86.4l-62.8,86.4
	l-0.3,0.4l0.4,0.3l54.2,39.4l0.4,0.3l0.3-0.4l91.4-125.8l0.3-0.4l-0.2-0.2l0.2-0.2l-0.3-0.4L159.7,0.4z M159.2,1.4l90.8,125
	l-0.4,0.3l0.4,0.3l-90.8,125l-53.4-38.8l62.7-86.3l0.2-0.3l-0.2-0.3l-62.7-86.3L159.2,1.4z"/>
</svg>
