<svg height="100" viewBox="0 0 100 100" width="100" xmlns="http://www.w3.org/2000/svg"><g fill="none" stroke-linecap="round" stroke-linejoin="round"><path d="m65.648 27.399c2.705-2.886 4.216-6.689 4.229-10.644 0-8.918-8.511-16.148-17.877-16.148s-16.964 7.23-16.964 16.148c.015 4.222 1.731 8.259 4.76 11.2l-1.049 4.952 5.092-1.991c5.282 2.747 11.594 2.646 16.785-.27l5.686 2.261z" stroke="#03181c"/><path d="m50.049 25.998-6.11-4.583 2.774-3.277 3.017 2.616 7.959-12.84 3.7 2.141-9.981 15.7c-.237.43-.777.586-1.206.349-.055-.03-.106-.066-.153-.106z" stroke="#c39052"/><g stroke="#03181c"><path d="m.868 7.439 28.979 28.98-18.384 18.384-10.607-10.606"/><path d="m28.787 72.127-10.96-10.96 18.031-18.031 6.961 6.964c-.294.475-.561.966-.8 1.471l-3.629 7.653c-.499 1.053-.509 2.273-.028 3.334"/><path d="m25.428 75.486 5.657-5.657c1.464-1.462 3.836-1.462 5.3 0l.354.354c1.462 1.464 1.462 3.836 0 5.3l-5.657 5.657c-1.464 1.462-3.836 1.462-5.3 0l-.354-.354c-1.391-1.451-1.334-3.795 0-5.3z"/><path d="m31.085 81.143 5.657-5.657c1.464-1.462 3.836-1.462 5.3 0l.354.354c1.462 1.464 1.462 3.836 0 5.3l-5.654 5.66c-1.465 1.461-3.835 1.461-5.3 0l-.353-.354c-1.465-1.463-1.468-3.836-.005-5.302 0 0 0 0 .001-.001z"/><path d="m36.742 86.8 5.658-5.657c1.464-1.462 3.836-1.462 5.3 0l.353.354c1.463 1.464 1.463 3.836 0 5.3l-5.653 5.66c-1.465 1.461-3.835 1.461-5.3 0l-.353-.354c-1.466-1.462-1.469-3.836-.006-5.302 0 0 0 0 .001-.001z"/><path d="m71.92 71.42 4.066 4.066c1.463 1.464 1.463 3.836 0 5.3l-.353.354c-1.465 1.461-3.835 1.461-5.3 0l-3.358-3.359"/><path d="m66.971 77.784 3.358 3.359c1.463 1.464 1.463 3.836 0 5.3l-.353.354c-1.465 1.461-3.835 1.461-5.3 0l-3.358-3.359"/><path d="m61.314 83.441 3.358 3.359c1.463 1.464 1.463 3.836 0 5.3l-.353.354c-1.464 1.462-3.836 1.462-5.3 0l-3.362-3.354"/><path d="m55.657 89.1 3.359 3.359c1.462 1.464 1.462 3.836 0 5.3l-.354.354c-1.464 1.462-3.836 1.462-5.3 0l-2.652-2.652"/><path d="m42.4 92.457 5.655-5.657c1.464-1.462 3.836-1.462 5.3 0l.353.353c1.462 1.464 1.462 3.836 0 5.3l-5.657 5.657c-1.464 1.462-3.836 1.462-5.3 0l-.351-.35c-1.464-1.464-1.465-3.838-.001-5.302 0 0 0 0 .001-.001z"/><path d="m65.203 41.368 6.717-6.717 21.921 21.92-6.718 6.718z"/><path d="m99.144 44.197-8.839 8.839-16.97-16.971 25.153-25.154"/><path d="m8.281 57.985 23.688-23.688 6.364 6.364-23.688 23.688z"/><path d="m83.588 59.753-11.665 11.665-7.147-7.032c-3.386-3.335-7.244-6.154-11.45-8.366l-1.347-.708c-1.14-.597-2.548-.163-3.155.971l-3.531 6.527c-1.001 1.877-3.335 2.587-5.212 1.586-.04-.021-.079-.043-.118-.066-1.772-1.036-2.457-3.255-1.576-5.109l3.629-7.653c3.315-7.098 11.733-10.195 18.858-6.94l3.232 1.372 2.865-2.865z"/></g></g></svg>