<svg xmlns="http://www.w3.org/2000/svg" width="971.031" height="231.2" viewBox="0 0 971.031 231.2"><defs><style>.a{fill:#04293a;}.b{fill:#c39052;}</style></defs><title>logo-RGB</title><path class="a" d="M269.331,93.9a29.817,29.817,0,0,0-10-8.1,27.292,27.292,0,0,0-11.9-2.5,30.461,30.461,0,0,0-12.8,2.5,24.785,24.785,0,0,0-9.2,7,32.832,32.832,0,0,0-5.5,10.3,42.415,42.415,0,0,0-1.9,12.5,36.823,36.823,0,0,0,2.1,12.5,33.731,33.731,0,0,0,5.9,10.3,26.5,26.5,0,0,0,9.2,7,27.731,27.731,0,0,0,12,2.5c9.5,0,16.9-3.6,22.1-10.8l10.8,10.2a38.562,38.562,0,0,1-14.8,10.6,49.56,49.56,0,0,1-18,3.3,48.877,48.877,0,0,1-18.3-3.3,38.994,38.994,0,0,1-14.2-9.5,44.078,44.078,0,0,1-9.1-14.5,49.6,49.6,0,0,1-3.2-18.3,51.608,51.608,0,0,1,3.2-18.2,42.725,42.725,0,0,1,9.2-14.5,40.757,40.757,0,0,1,14.2-9.5,46.96,46.96,0,0,1,18.3-3.4,51.151,51.151,0,0,1,18.3,3.3,39.806,39.806,0,0,1,15.1,10.4Z"/><path class="a" d="M296.931,18.8h14.5V84.2h.4a22.892,22.892,0,0,1,4.1-5.1,26.723,26.723,0,0,1,6.2-4.5,36.624,36.624,0,0,1,17.6-4.6,38.25,38.25,0,0,1,14.7,2.6,27.363,27.363,0,0,1,10.3,7.2,29.456,29.456,0,0,1,6,11.2,50.711,50.711,0,0,1,1.9,14.4V159h-14.5V106.9c0-7.3-1.6-13-4.8-17.2s-8.2-6.3-15-6.3a28.08,28.08,0,0,0-12.1,2.4,20.714,20.714,0,0,0-8.3,6.9,29.412,29.412,0,0,0-4.8,10.6,56.745,56.745,0,0,0-1.6,13.5v42.3h-14.6Z"/><path class="a" d="M440.231,84.5h-.4c-8.9,0-15.4,2.9-19.4,8.6s-6,13.6-6,23.6V159h-14.5V72.3h13.3V86.6h.4a25.647,25.647,0,0,1,4.2-6.1,30.605,30.605,0,0,1,6.4-5.3,34.852,34.852,0,0,1,8.3-3.7,35.532,35.532,0,0,1,10-1.4c1,0,2,.1,3,.2a16.275,16.275,0,0,1,3,.7Z"/><path class="a" d="M456.831,115.6a47.629,47.629,0,0,1,3.5-18.5,42.5,42.5,0,0,1,24.2-23.8,51.06,51.06,0,0,1,18.5-3.3,50.309,50.309,0,0,1,18.5,3.3,40.373,40.373,0,0,1,14.6,9.4,42.286,42.286,0,0,1,9.6,14.4,50.639,50.639,0,0,1,0,37,42.5,42.5,0,0,1-24.2,23.8,51.06,51.06,0,0,1-18.5,3.3,50.309,50.309,0,0,1-18.5-3.3,40.385,40.385,0,0,1-14.6-9.4,42.3,42.3,0,0,1-9.6-14.4A47.632,47.632,0,0,1,456.831,115.6Zm15.6,0a37.225,37.225,0,0,0,2.1,12.7,29.453,29.453,0,0,0,6.2,10.2,32.068,32.068,0,0,0,35.1,6.9,29.534,29.534,0,0,0,15.9-17.1,39.439,39.439,0,0,0,0-25.4,29.422,29.422,0,0,0-6.2-10.2,32.067,32.067,0,0,0-35.1-6.9,29.54,29.54,0,0,0-15.9,17.1A37.225,37.225,0,0,0,472.43,115.6Z"/><path class="a" d="M571.93,72.2h13.3V86.5h.4a25.647,25.647,0,0,1,4.2-6.1,30.605,30.605,0,0,1,6.4-5.3,34.852,34.852,0,0,1,8.3-3.7,35.532,35.532,0,0,1,10-1.4,38.25,38.25,0,0,1,14.7,2.6,27.363,27.363,0,0,1,10.3,7.2,29.456,29.456,0,0,1,6,11.2,50.711,50.711,0,0,1,1.9,14.4V159h-14.5V106.9c0-7.3-1.6-13-4.8-17.2s-8.2-6.3-15-6.3a28.072,28.072,0,0,0-12.1,2.4,20.711,20.711,0,0,0-8.3,6.9,29.412,29.412,0,0,0-4.8,10.6,56.745,56.745,0,0,0-1.6,13.5v42.3h-14.4Z"/><path class="a" d="M670.031,115.6a47.629,47.629,0,0,1,3.5-18.5,42.5,42.5,0,0,1,24.2-23.8,51.06,51.06,0,0,1,18.5-3.3,50.309,50.309,0,0,1,18.5,3.3,40.385,40.385,0,0,1,14.6,9.4,42.3,42.3,0,0,1,9.6,14.4,50.639,50.639,0,0,1,0,37,46.536,46.536,0,0,1-9.6,14.4,45.286,45.286,0,0,1-14.6,9.4,51.067,51.067,0,0,1-18.5,3.3,50.3,50.3,0,0,1-18.5-3.3,40.368,40.368,0,0,1-14.6-9.4,42.286,42.286,0,0,1-9.6-14.4A45.881,45.881,0,0,1,670.031,115.6Zm15.5,0a37.2,37.2,0,0,0,2.1,12.7,29.44,29.44,0,0,0,6.2,10.2,32.066,32.066,0,0,0,35.1,6.9,29.539,29.539,0,0,0,15.9-17.1,39.452,39.452,0,0,0,0-25.4,29.44,29.44,0,0,0-6.2-10.2,32.066,32.066,0,0,0-35.1-6.9,29.539,29.539,0,0,0-15.9,17.1A37.2,37.2,0,0,0,685.531,115.6Z"/><path class="b" d="M780.63,141.2,830.13,93c3.1-3,5.8-5.7,8.2-8.2a51.875,51.875,0,0,0,5.8-7.4,28.013,28.013,0,0,0,3.4-7.5,33.385,33.385,0,0,0,1.1-8.7,21.482,21.482,0,0,0-1.9-9.3,20.691,20.691,0,0,0-5.1-7,22.957,22.957,0,0,0-7.6-4.4,28.528,28.528,0,0,0-9.4-1.6q-10.048,0-16.5,5.7a26.22,26.22,0,0,0-8.3,15.2l-16.9-1.5a42.656,42.656,0,0,1,4.9-14.2,33.468,33.468,0,0,1,9.1-10.3,40.675,40.675,0,0,1,12.3-6.2,50.448,50.448,0,0,1,14.8-2.1,51.693,51.693,0,0,1,15.4,2.3,36.951,36.951,0,0,1,12.7,6.8,32.725,32.725,0,0,1,11.9,26.5,44.454,44.454,0,0,1-2.1,14.1,46.409,46.409,0,0,1-5.7,11.6,70.4,70.4,0,0,1-8.2,10c-3,3.1-6.2,6.3-9.5,9.4l-40.4,38v.4h66.9v14.5h-84.5V141.2Z"/><path class="b" d="M952.131,144.5h18.9l-9.1,14.5h-9.8v30h-15.6V159h-55.6V141.8l52.1-84h19.1v86.7Zm-15.6-68.6h-.4l-41.9,68.6h42.3Z"/><polygon class="b" points="115.73 127 48.631 63.6 59.831 51.7 115.331 104.1 152.831 66 164.431 77.5 115.73 127"/><path class="a" d="M115.531,231.2a115.6,115.6,0,1,1,87-191.8l-12.3,10.8a99.195,99.195,0,1,0,0,130.6l12.3,10.8A115.3,115.3,0,0,1,115.531,231.2Z"/></svg>