<svg height="100" viewBox="0 0 100 100" width="100" xmlns="http://www.w3.org/2000/svg"><g fill="none" stroke-linejoin="round"><path d="m13.666 40.838v-21.106h63.657v45.802h-37.378" stroke="#03181c"/><g stroke-linecap="round"><path d="m77.323 19.732 22.177-7.371v45.107l-22.177 8.066z" stroke="#03181c"/><path d="m77.323 19.732h-63.657l21.446-7.371h64.388z" stroke="#03181c"/><path d="m51.903 46.472h18.323v13.157h-18.323z" stroke="#03181c"/><path d="m24.248 16.035c21.196.045 43.005.145 64.201.191v15.369" stroke="#03181c"/><path d="m10.929 62.173 8.72 7.793 12.038-14.026" stroke="#23a15c"/><path d="m.5 44.143 3.907-.772c3.96-.783 7.839-1.929 11.586-3.421l4.227-1.684 4.227 1.684c3.747 1.492 7.626 2.638 11.586 3.421l3.907.772v22.336c0 9.004-6.573 16.057-19.72 21.16-13.147-5.2-19.72-12.253-19.72-21.159v-22.336z" stroke="#23a15c"/></g></g></svg>