<svg height="100" viewBox="0 0 100 100" width="100" xmlns="http://www.w3.org/2000/svg"><g fill="none" stroke-linecap="round" stroke-linejoin="round"><g stroke="#03181c"><path d="m73.496 64.285v9.221l-11.002 7.001-11.002-7.001v-9.221c2.914 3.421 6.618 5.721 11.002 5.721s8.087-2.3 11.002-5.721z"/><path d="m62.495 70.005c11.656 0 18.503-16.285 18.503-26.504s-5.301-18.503-18.503-18.503-18.503 8.284-18.503 18.503 6.847 26.504 18.503 26.504z"/><path d="m61.494 59.504h6.001c.552 0 1 .448 1 1v1c0 .552-.448 1-1 1h-6.001c-.552 0-1-.448-1-1v-1c0-.552.448-1 1-1z"/><path d="m44.059 45.091c.616-2.285 1.814-5.038 3.256-5.59 1.096-.419 7.56 4.98 15.179 2.368 3.572-1.224 8.117-5.517 10.994-5.517 2.345 0 2.491 5.434 7.202 11.15"/><path d="m40.021 44.652c-.02-.381-.03-.764-.03-1.15 0-12.152 9.01-22.003 22.503-22.003s22.503 9.851 22.503 22.003c0 .39-.01.778-.031 1.163"/><path d="m44.92 57.995c-1.35.288-4.147-2.567-5.066-6.89s.388-8.475 1.739-8.762 2.212 3.192 3.13 7.514 1.547 7.847.196 8.138zm35.144 0c-1.35-.287-.722-3.816.2-8.138.922-4.323 1.78-7.801 3.131-7.514s2.657 4.44 1.738 8.762-3.719 7.178-5.07 6.89z"/><path d="m25.489 99.456v-9.948c0-7.733 6.269-14.002 14.002-14.002h4.001l8.001-2 11.002 7.001 11.002-7.001 8.001 2h4.001c7.733 0 14.002 6.269 14.002 14.002v9.948"/><path d="m43.492 75.506 8.001-2 11 7.001-6.001 7.001-12.956-11.933z"/><path d="m73.496 73.506 8.001 2-13.002 12.002-6-7.001z"/><path d="m78.277 56.224c-1.489 3.168-2.98 4.78-5.693 4.78h-4.089"/><path d="m42.623 32.549h-12.119l4.001 8.501-16.002-8.501h-13.002c-2.762 0-5.001-2.239-5.001-5.001v-22.003c0-2.762 2.239-5.001 5.001-5.001h41.006c2.762 0 5.001 2.239 5.001 5.001v18.501"/></g><path d="m10.001 9.545h32.005" stroke="#23a15c"/><path d="m10.001 16.546h32.005" stroke="#23a15c"/><path d="m10.001 23.547h32.005" stroke="#23a15c"/></g></svg>